<svg version="1.0" xmlns="http://www.w3.org/2000/svg" width="800" height="800" viewBox="0 0 600 600"><path d="M265 1.5c-68 8.3-129.7 38.2-177.5 86-42.9 42.9-71.7 97.6-83 157.5-6.1 32.7-6.1 77.3 0 110 11.3 60 40 114.5 83 157.5 49.1 49 113.6 79.6 182.4 86.5 13.3 1.3 46.9 1.3 60.2 0 130.8-13 238.3-110.2 264.3-239.1 4.1-20 5.6-36.3 5.6-59.9s-1.5-39.9-5.6-59.9C573.4 135.9 498.6 50.6 398 15.9c-20.1-7-41.5-11.8-64-14.4-15.3-1.8-54.1-1.8-69 0zm113.1 166.6c7.9 8.9 14.4 16.5 14.4 16.9 0 .4-27.4 25.4-60.8 55.5-53.6 48.2-60.6 54.9-59.5 56.3.7.9 25.3 28.3 54.6 60.9 29.2 32.6 53.2 59.7 53.2 60.2 0 .7-20.8 20-30.7 28.4-2.1 1.8-2.4 1.4-60.4-63-83.1-92.1-81.9-90.7-81.9-91.3 0-.3 8.8-8.4 19.6-18s45.8-41 77.8-69.8c31.9-28.7 58.3-52.2 58.7-52.2.3 0 7.1 7.2 15 16.1z" fill="#bb133e"/></svg>